# xmcd CD database file
#
# Track frame offsets:
#	150
#	17368
#	30210
#	51132
#	65091
#	82494
#	92782
#	117828
#	140060
#	170415
#	185265
#	201296
#
# Disc length: 2904 seconds
#
# Revision: 0
# Processed by: cddbd v1.5.2PL0 Copyright (c) Steve Scherf et al.
# Submitted via: CDex 1.81
#
DISCID=a30b560c
DTITLE=Godboo. Jerome [CDN-Humdinger-bls) - Humdinger
DYEAR=1900
DGENRE=Blues
TTITLE0=Rock to Build a House On
TTITLE1=Humdinger
TTITLE2=Eye On You
TTITLE3=Janey Jane
TTITLE4=Beans
TTITLE5=Don't Cry Baby
TTITLE6=Wounded Healer
TTITLE7=Dogman
TTITLE8=Mother
TTITLE9=Stinky Gardener
TTITLE10=Xmas Storm
TTITLE11=Jerome Godboo - Deep Sea Diver
EXTD=
EXTT0=
EXTT1=
EXTT2=
EXTT3=
EXTT4=
EXTT5=
EXTT6=
EXTT7=
EXTT8=
EXTT9=
EXTT10=
EXTT11=
PLAYORDER=
